# xmcd
#
# Track frame offsets:
#	150
#	7607
#	23867
#	40995
#	57845
#	75263
#	95767
#	103505
#	121869
#	153440
#	176675
#	196746
#
# Disc length: 2814 seconds
#
# Revision: 1
# Processed by: cddbd v1.4PL0 Copyright (c) Steve Scherf et al.
# Submitted via: CDmax 1.9
#
DISCID=820afc0c
DTITLE=Gemma Hayes - Night on my side
DYEAR=2002
DGENRE=Alt. Country
TTITLE0=Day one
TTITLE1=Hanging around
TTITLE2=Back of my head
TTITLE3=Over and over
TTITLE4=Let a good thing go
TTITLE5=Ran for miles
TTITLE6=What a day
TTITLE7=Tear in my side
TTITLE8=I wanna stay
TTITLE9=Lucky one (Bird of Casadaga)
TTITLE10=My God
TTITLE11=Night on my side
EXTD=
EXTT0=
EXTT1=
EXTT2=
EXTT3=
EXTT4=
EXTT5=
EXTT6=
EXTT7=
EXTT8=
EXTT9=
EXTT10=
EXTT11=
PLAYORDER=
